<?xml version="1.0" encoding="utf-8"?>
<!-- Generator: Adobe Illustrator 16.0.0, SVG Export Plug-In . SVG Version: 6.00 Build 0)  -->
<!DOCTYPE svg PUBLIC "-//W3C//DTD SVG 1.1//EN" "http://www.w3.org/Graphics/SVG/1.1/DTD/svg11.dtd">
<svg version="1.1" id="Calque_1" xmlns="http://www.w3.org/2000/svg" xmlns:xlink="http://www.w3.org/1999/xlink" x="0px" y="0px"
	 width="841.89px" height="595.28px" viewBox="0 0 841.89 595.28" enable-background="new 0 0 841.89 595.28" xml:space="preserve">
<g>
	<text transform="matrix(1 0 0 1 212.79 426.627)" font-family="'TypoSlabserif-Light'" font-size="258.9935">N</text>
	<text transform="matrix(1 0.0017 -0.0017 1 341.9956 426.4688)" font-family="'TypoSlabserif-Light'" font-size="258.9943">A</text>
	<text transform="matrix(1 0 0 1 473.0781 426.627)" font-family="'TypoSlabserif-Light'" font-size="258.9935">H</text>
	<rect x="352.417" y="181.097" width="14.316" height="111.819"/>
	<rect x="352.192" y="241.167" width="313.224" height="12.962"/>
	<rect x="220.192" y="414.418" width="428.39" height="12.44"/>
</g>
<circle fill="#E9484A" cx="619.788" cy="123.161" r="29.227"/>
<circle fill="#E5A302" cx="445.234" cy="193.572" r="14.389"/>
<circle fill="#508AC8" cx="451.649" cy="151.809" r="18.436"/>
<circle fill="#E9484A" cx="484.664" cy="193" r="16.056"/>
<circle fill="#508AC8" cx="413.985" cy="207.81" r="10.769"/>
<circle fill="#E9484A" cx="383.329" cy="219.667" r="8.055"/>
<path fill="#508AC8" d="M590.751,164.808c0,13.861-11.24,25.102-25.102,25.102s-25.103-11.241-25.103-25.102
	c0-13.86,11.241-25.101,25.103-25.101S590.751,150.947,590.751,164.808z"/>
<circle fill="#E5A302" cx="514.329" cy="143.668" r="21.389"/>
<line fill="none" stroke="#000000" stroke-width="13" stroke-miterlimit="10" x1="355.749" y1="247.614" x2="664.723" y2="247.614"/>
<rect x="211.667" y="413.833" fill="#FFFFFF" width="447.994" height="20.991"/>
</svg>
